<svg width="800" height="240" viewBox="0 0 800 240" fill="none" xmlns="http://www.w3.org/2000/svg">
<path d="M181.199 119.989L59.3171 0.000152588V36.4067L144.218 119.989L59.3171 203.594V240L181.199 119.989Z" fill="#41ACFC"/>
<path d="M114.559 119.989L29.6583 36.4281V72.8347L77.5786 119.989L29.6583 167.166V203.572L114.559 119.989Z" fill="#41ACFC"/>
<path d="M0.0435837 72.813L0 167.144L47.9202 119.946L0.0435837 72.813Z" fill="#41ACFC"/>
<path d="M361.548 68.6944V171.263H336.117L258.451 97.206V171.263H235.047V68.6944H260.478L338.144 142.902V68.6944H361.548Z" fill="#080814"/>
<path d="M390.357 68.6944H445.665C491.013 68.6944 509.536 88.7534 509.536 119.818C509.536 150.883 490.861 171.306 445.512 171.306H390.357V68.6944ZM445.512 151.655C473.384 151.655 485.021 141.55 485.021 119.818C485.021 98.0857 473.384 88.3029 445.512 88.3029H413.957V151.655H445.512Z" fill="#080814"/>
<path d="M618.147 147.729H553.665L540.59 171.328H515.529L573.278 68.7585H599.166L656.915 171.328H631.179L618.147 147.729ZM607.883 129.021L585.895 89.3539L564.103 129.021H607.883Z" fill="#080814"/>
<path d="M747.154 119.818L800 171.306H768.598L731.9 134.642L695.29 171.306H664.128L716.82 119.818L663.823 68.6944H695.377L731.987 105.165L768.75 68.6944H800L747.154 119.818Z" fill="#080814"/>
</svg>
